<?xml version="1.0" standalone="no"?>
<!DOCTYPE svg PUBLIC "-//W3C//DTD SVG 20010904//EN"
 "http://www.w3.org/TR/2001/REC-SVG-20010904/DTD/svg10.dtd">
<svg version="1.0" xmlns="http://www.w3.org/2000/svg"
 width="518.000000pt" height="518.000000pt" viewBox="0 0 518.000000 518.000000"
 preserveAspectRatio="xMidYMid meet">
<metadata>
Created by potrace 1.11, written by Peter Selinger 2001-2013
</metadata>
<g transform="translate(0.000000,518.000000) scale(0.100000,-0.100000)"
fill="#000000" stroke="none">
<path d="M47 4812 c-16 -17 -17 -102 -17 -1015 l0 -996 25 -20 c21 -16 31 -18
55 -10 15 6 32 18 36 27 4 9 8 442 8 962 l1 945 187 0 c157 0 189 -2 194 -15
4 -8 6 -19 4 -25 -6 -23 -5 -61 2 -83 5 -14 4 -21 -1 -17 -6 3 -9 -4 -8 -15 1
-11 5 -20 10 -20 6 0 6 -5 0 -12 -11 -15 -11 -58 0 -75 4 -6 3 -14 -3 -18 -6
-4 -7 -12 -3 -18 10 -16 11 -47 2 -41 -4 2 -7 -5 -6 -16 1 -11 5 -20 10 -20 5
0 5 -6 -2 -13 -8 -10 -7 -17 2 -27 6 -7 7 -10 1 -7 -11 7 -13 -61 -1 -80 4 -6
3 -15 -3 -18 -7 -5 -8 -11 -1 -19 6 -7 6 -18 1 -26 -4 -7 -4 -24 1 -37 5 -15
5 -22 0 -18 -6 3 -9 -4 -8 -15 1 -11 5 -20 10 -20 6 0 6 -5 0 -12 -11 -15 -11
-58 0 -75 4 -6 3 -15 -3 -18 -7 -5 -8 -11 -1 -19 6 -7 6 -18 1 -26 -4 -7 -4
-24 1 -37 5 -15 5 -22 0 -18 -6 3 -9 -4 -8 -15 1 -11 5 -20 10 -20 6 0 6 -5 0
-12 -10 -14 -10 -76 1 -103 3 -9 2 -13 -4 -10 -5 3 -8 -4 -7 -15 1 -11 5 -20
10 -20 6 0 6 -5 0 -12 -10 -14 -10 -76 1 -103 3 -9 2 -13 -4 -10 -5 3 -8 -4
-7 -15 1 -11 5 -20 10 -20 6 0 6 -5 0 -12 -10 -14 -10 -76 1 -103 3 -9 2 -13
-4 -10 -5 3 -8 -4 -7 -15 1 -11 5 -20 10 -20 6 0 6 -5 0 -12 -11 -15 -11 -58
0 -75 4 -6 3 -15 -3 -18 -7 -5 -8 -11 -1 -19 6 -7 6 -18 1 -26 -4 -7 -4 -24 1
-37 5 -15 5 -22 0 -18 -6 3 -9 -4 -8 -15 1 -11 5 -20 10 -20 6 0 6 -5 0 -12
-11 -15 -11 -58 0 -75 4 -6 3 -14 -3 -18 -6 -4 -7 -12 -3 -18 4 -6 7 -23 7
-36 1 -28 39 -54 69 -47 9 2 17 0 17 -5 0 -6 8 -5 20 1 14 8 20 8 20 0 0 -8 6
-8 20 0 15 8 20 8 20 -2 0 -9 3 -9 10 2 5 8 10 10 10 5 0 -12 40 -13 58 -1 7
4 12 2 12 -4 0 -6 5 -8 13 -3 18 11 37 13 37 3 0 -5 14 -5 30 0 19 5 30 5 30
-1 0 -6 8 -5 20 1 14 8 20 8 20 0 0 -8 6 -8 20 0 14 8 20 8 20 0 0 -8 6 -8 20
0 15 8 20 8 20 -2 0 -9 3 -9 10 2 5 8 10 10 10 5 0 -12 40 -13 58 -1 7 4 12 2
12 -4 0 -6 5 -8 13 -3 18 11 37 13 37 3 0 -5 13 -5 30 0 19 5 30 5 30 -1 0 -6
8 -5 20 1 14 8 20 8 20 0 0 -8 6 -8 20 0 14 8 20 8 20 0 0 -8 6 -8 20 0 15 8
20 8 20 -2 0 -9 3 -9 10 2 5 8 10 10 10 5 0 -12 40 -13 58 -1 7 4 12 2 12 -4
0 -6 5 -8 13 -3 18 11 37 13 37 3 0 -5 13 -5 30 0 19 5 30 5 30 -1 0 -6 8 -5
20 1 14 8 20 8 20 0 0 -8 6 -8 20 0 14 8 20 8 20 0 0 -8 6 -8 20 0 15 8 20 8
20 -2 0 -9 3 -9 10 2 5 8 10 10 10 5 0 -11 45 -13 56 -2 3 3 16 2 29 -3 13 -5
26 -6 30 -2 4 4 10 7 13 7 32 3 52 20 56 48 3 18 5 395 4 838 -1 443 2 811 6
817 4 7 4 12 -1 12 -7 0 -9 46 -4 95 1 12 375 14 387 2 4 -4 2 -7 -5 -7 -8 0
-9 -5 -2 -19 6 -10 8 -21 5 -24 -9 -9 -12 -57 -4 -57 10 0 8 -20 -3 -37 -5 -8
-3 -13 3 -13 6 0 8 -5 5 -11 -10 -16 -13 -59 -5 -59 10 0 8 -20 -3 -37 -5 -8
-3 -13 3 -13 6 0 8 -5 5 -11 -10 -16 -13 -59 -5 -59 10 0 8 -20 -3 -37 -5 -8
-3 -13 3 -13 6 0 8 -5 5 -11 -12 -18 -13 -59 -1 -59 6 0 4 -5 -4 -10 -11 -7
-11 -10 -2 -10 10 0 10 -5 2 -20 -8 -14 -8 -20 0 -20 8 0 8 -6 0 -20 -8 -14
-8 -20 0 -20 8 0 8 -6 0 -20 -8 -14 -8 -20 0 -20 8 0 8 -6 0 -20 -8 -14 -8
-20 0 -20 8 0 8 -6 0 -20 -8 -14 -8 -20 0 -20 8 0 8 -6 0 -20 -8 -14 -8 -20 0
-20 8 0 8 -6 0 -20 -6 -12 -7 -20 -1 -20 6 0 6 -11 1 -30 -5 -16 -5 -30 0 -30
10 0 8 -19 -3 -37 -5 -8 -3 -13 3 -13 6 0 8 -5 5 -11 -10 -16 -13 -59 -5 -59
10 0 8 -20 -3 -37 -5 -8 -3 -13 3 -13 6 0 8 -5 5 -11 -10 -16 -13 -59 -5 -59
10 0 8 -20 -3 -37 -5 -8 -3 -13 3 -13 6 0 8 -5 5 -11 -10 -16 -13 -59 -5 -59
10 0 8 -20 -3 -37 -5 -8 -3 -13 3 -13 6 0 8 -5 5 -11 -10 -16 -13 -59 -5 -59
10 0 8 -20 -3 -37 -5 -8 -3 -13 3 -13 6 0 8 -5 5 -11 -12 -18 -13 -59 -1 -59
6 0 4 -5 -4 -10 -11 -7 -11 -10 -2 -10 10 0 10 -5 2 -20 -8 -14 -8 -20 0 -20
8 0 8 -6 0 -20 -8 -14 -8 -20 0 -20 8 0 8 -6 0 -20 -8 -14 -8 -20 0 -20 8 0 8
-6 0 -20 -8 -14 -8 -20 0 -20 8 0 8 -6 0 -20 -8 -14 -8 -20 0 -20 8 0 8 -6 0
-20 -8 -14 -8 -20 0 -20 8 0 8 -6 0 -20 -6 -12 -7 -20 -1 -20 6 0 6 -11 1 -30
-5 -16 -5 -30 0 -30 10 0 8 -19 -3 -37 -5 -8 -3 -13 3 -13 7 0 8 -6 2 -16 -13
-23 8 -62 40 -73 14 -5 29 -6 33 -3 4 4 11 8 16 8 5 1 13 2 17 3 13 2 13 13
15 354 1 203 6 317 12 317 7 0 7 3 0 8 -6 4 -10 175 -10 477 0 302 4 473 10
477 7 5 7 8 0 8 -6 0 -10 69 -9 187 0 154 -2 190 -15 205 -14 17 -39 18 -302
18 -260 0 -287 -2 -301 -17 -14 -16 -16 -116 -16 -893 0 -481 -1 -882 -1 -892
-1 -15 -46 -16 -541 -16 -397 0 -540 3 -541 12 -1 6 -2 405 -3 886 -1 679 -4
880 -14 898 l-13 22 -288 0 c-266 0 -289 -1 -304 -18z"/>
<path d="M2699 4812 c-9 -10 -15 -31 -13 -45 3 -31 34 -76 52 -77 6 0 12 -6
12 -14 0 -8 9 -18 21 -21 11 -4 19 -9 16 -11 -6 -6 62 -74 73 -74 5 0 12 -9
15 -20 3 -11 13 -20 21 -20 8 0 14 -6 14 -14 0 -8 9 -18 21 -21 11 -4 19 -9
16 -11 -4 -5 142 -154 152 -154 3 0 17 -16 31 -35 14 -19 33 -37 43 -41 10 -3
17 -8 14 -10 -5 -6 104 -114 115 -114 4 0 8 -4 8 -8 0 -11 261 -272 272 -272
4 0 8 -4 8 -8 0 -12 141 -152 153 -152 6 0 8 -3 5 -6 -6 -6 112 -122 140 -138
38 -21 60 -15 110 34 28 27 48 51 44 54 -3 3 0 6 7 6 7 0 19 6 26 14 8 7 11
16 8 20 -4 3 -1 6 5 6 14 0 92 78 92 92 0 6 2 9 6 6 6 -7 114 99 114 113 0 5
6 8 13 7 6 -2 11 3 9 10 -1 6 2 12 7 12 12 0 271 260 271 271 0 5 3 8 8 7 4
-1 127 119 275 266 252 254 267 271 267 305 0 20 -5 42 -12 49 -9 9 -148 12
-563 12 -513 0 -553 -1 -567 -17 -20 -23 -29 -63 -15 -63 6 0 8 -3 4 -6 -3 -4
1 -14 10 -23 14 -14 66 -16 464 -16 246 0 450 -3 453 -6 4 -3 -14 -25 -39 -48
-25 -23 -45 -47 -45 -53 0 -6 -2 -9 -5 -6 -7 7 -91 -75 -87 -84 2 -5 -1 -8 -5
-8 -12 0 -240 -229 -234 -235 2 -3 0 -5 -6 -5 -12 0 -161 -149 -155 -155 3 -3
1 -5 -5 -5 -13 0 -223 -211 -223 -224 0 -5 -3 -7 -6 -3 -3 3 -28 -19 -55 -49
-27 -30 -49 -52 -49 -48 0 3 -17 -14 -37 -38 -21 -24 -43 -43 -49 -43 -14 0
-1020 1005 -1008 1006 5 1 210 2 456 3 393 1 449 3 463 17 22 22 26 70 7 92
-14 16 -54 17 -571 17 -528 0 -557 -1 -572 -18z"/>
<path d="M51 2621 c-21 -21 -21 -24 -21 -1065 0 -1032 0 -1045 20 -1059 11 -8
17 -17 13 -21 -4 -3 125 -6 285 -6 181 1 290 5 287 11 -4 5 -2 9 3 9 5 0 13
10 18 23 6 13 10 371 9 940 0 504 2 917 5 918 30 6 1073 2 1077 -5 3 -4 6
-424 5 -931 l0 -923 24 -21 c23 -20 35 -21 307 -21 165 0 276 4 268 9 -11 7
-9 10 8 16 20 6 26 20 23 58 -1 9 4 17 11 17 7 0 8 3 2 8 -6 4 -10 176 -10
480 0 308 3 472 10 472 7 0 7 3 0 8 -6 4 -10 175 -10 477 0 302 4 473 10 477
7 5 7 8 0 8 -5 0 -10 25 -11 55 0 30 -5 60 -11 66 -19 19 -76 19 -94 0 -17
-18 -31 -61 -20 -61 4 0 8 -7 8 -15 0 -8 -4 -15 -9 -15 -5 0 -4 -8 1 -19 6
-10 8 -21 5 -24 -9 -9 -12 -57 -4 -57 10 0 8 -20 -3 -37 -5 -8 -3 -13 3 -13 6
0 8 -5 5 -11 -12 -18 -13 -59 -1 -59 6 0 4 -5 -4 -10 -11 -7 -11 -10 -2 -10
10 0 10 -5 2 -20 -8 -14 -8 -20 0 -20 8 0 8 -6 0 -20 -8 -14 -8 -20 0 -20 8 0
8 -6 0 -20 -8 -14 -8 -20 0 -20 8 0 8 -6 0 -20 -8 -14 -8 -20 0 -20 8 0 8 -6
0 -20 -8 -14 -8 -20 0 -20 8 0 8 -6 0 -20 -8 -14 -8 -20 0 -20 8 0 8 -6 0 -20
-6 -12 -7 -20 -1 -20 6 0 6 -11 1 -30 -5 -16 -5 -30 0 -30 10 0 8 -19 -3 -37
-5 -8 -3 -13 3 -13 6 0 8 -5 5 -11 -10 -16 -13 -59 -5 -59 10 0 8 -20 -3 -37
-5 -8 -3 -13 3 -13 6 0 8 -5 5 -11 -10 -16 -13 -59 -5 -59 10 0 8 -20 -3 -37
-5 -8 -3 -13 3 -13 6 0 8 -5 5 -11 -10 -16 -13 -59 -5 -59 10 0 8 -20 -3 -37
-5 -8 -3 -13 3 -13 6 0 8 -5 5 -11 -10 -16 -13 -59 -5 -59 10 0 8 -20 -3 -37
-5 -8 -3 -13 3 -13 6 0 8 -5 5 -11 -12 -18 -13 -59 -1 -59 6 0 4 -5 -4 -10
-11 -7 -11 -10 -2 -10 10 0 10 -5 2 -20 -8 -14 -8 -20 0 -20 8 0 8 -6 0 -20
-8 -14 -8 -20 0 -20 8 0 8 -6 0 -20 -8 -14 -8 -20 0 -20 8 0 8 -6 0 -20 -8
-14 -8 -20 0 -20 8 0 8 -6 0 -20 -8 -14 -8 -20 0 -20 8 0 8 -6 0 -20 -8 -14
-8 -20 0 -20 8 0 8 -6 0 -20 -6 -12 -7 -20 -1 -20 6 0 6 -11 1 -30 -5 -16 -5
-30 0 -30 10 0 8 -19 -3 -37 -5 -8 -3 -13 3 -13 6 0 8 -5 5 -11 -10 -16 -13
-59 -5 -59 10 0 8 -20 -3 -38 -5 -7 -3 -12 3 -12 6 0 8 -5 5 -11 -10 -16 -13
-59 -5 -59 10 0 8 -20 -3 -37 -5 -8 -3 -13 3 -13 7 0 8 -6 1 -17 -5 -10 -5
-26 0 -40 8 -21 5 -27 -13 -24 -5 0 -8 -2 -8 -6 0 -9 -347 -9 -356 0 -10 9
-11 99 -2 125 4 12 4 22 0 22 -4 0 -7 385 -6 855 l1 855 -26 16 c-25 17 -109
25 -117 12 -3 -4 -15 -4 -27 0 -26 9 -284 8 -293 -1 -3 -3 -16 -3 -28 1 -25 9
-283 8 -292 -1 -3 -3 -16 -3 -28 1 -18 6 -282 8 -296 2 -3 -1 -9 -1 -15 0 -28
6 -155 4 -155 -3 0 -5 -4 -5 -10 -2 -11 7 -44 -15 -46 -30 -1 -5 -5 -20 -9
-32 -4 -15 -2 -23 6 -23 8 0 9 -4 0 -13 -8 -10 -7 -17 2 -27 6 -7 7 -10 1 -7
-11 7 -13 -61 -1 -80 4 -6 3 -15 -3 -18 -7 -5 -8 -11 -1 -19 6 -7 6 -18 1 -26
-4 -7 -4 -24 1 -37 5 -15 5 -22 0 -18 -6 3 -9 -4 -8 -15 1 -11 5 -20 10 -20 6
0 6 -5 0 -12 -11 -15 -11 -58 0 -75 4 -6 3 -15 -3 -18 -7 -5 -8 -11 -1 -19 6
-7 6 -18 1 -26 -4 -7 -4 -24 1 -37 5 -15 5 -22 0 -18 -6 3 -9 -4 -8 -15 1 -11
5 -20 10 -20 6 0 6 -5 0 -12 -10 -14 -10 -76 1 -103 3 -9 2 -13 -4 -10 -5 3
-8 -4 -7 -15 1 -11 5 -20 10 -20 6 0 6 -5 0 -12 -10 -14 -10 -76 1 -103 3 -9
2 -13 -4 -10 -5 3 -8 -4 -7 -15 1 -11 5 -20 10 -20 6 0 6 -5 0 -12 -10 -14
-10 -76 1 -103 3 -9 2 -13 -4 -10 -5 3 -8 -4 -7 -15 1 -11 5 -20 10 -20 6 0 6
-5 0 -12 -11 -15 -11 -58 0 -75 4 -6 3 -15 -3 -18 -7 -5 -8 -11 -1 -19 6 -7 6
-18 1 -26 -4 -7 -4 -24 1 -37 5 -15 5 -22 0 -18 -6 3 -9 -4 -8 -15 1 -11 5
-20 10 -20 6 0 6 -5 0 -12 -11 -15 -11 -58 0 -75 4 -6 3 -14 -3 -18 -6 -4 -7
-12 -3 -18 10 -16 11 -47 2 -41 -4 2 -7 -5 -6 -16 1 -11 5 -20 10 -20 5 0 5
-6 -2 -13 -8 -10 -7 -17 2 -27 6 -7 7 -10 1 -7 -11 7 -13 -61 -1 -80 4 -6 3
-15 -3 -18 -7 -5 -8 -11 -1 -19 6 -7 6 -18 1 -26 -4 -7 -4 -24 1 -37 5 -15 5
-22 0 -18 -6 3 -9 -4 -8 -15 1 -11 5 -20 10 -20 5 0 5 -6 0 -12 -6 -7 -8 -25
-6 -41 2 -15 0 -27 -4 -28 -38 -4 -373 -3 -374 1 -1 3 -2 453 -3 1001 -1 1088
3 1020 -58 1027 -17 2 -34 -4 -47 -17z"/>
</g>
</svg>
